<svg width="28" height="28" viewBox="0 0 28 28" fill="none" xmlns="http://www.w3.org/2000/svg">
<path fill-rule="evenodd" clip-rule="evenodd" d="M12 24C18.6274 24 24 18.6274 24 12C24 5.37258 18.6274 0 12 0C5.37258 0 0 5.37258 0 12C0 18.6274 5.37258 24 12 24ZM11.0885 18C11.0885 17.4966 11.4966 17.0885 12 17.0885H12.014C12.5174 17.0885 12.9255 17.4966 12.9255 18C12.9255 18.5034 12.5174 18.9115 12.014 18.9115H12C11.4966 18.9115 11.0885 18.5034 11.0885 18ZM16.5122 9.85106C16.5122 12.8186 14.3952 15.2242 11.7838 15.2242C11.5698 15.2242 11.3591 15.208 11.1526 15.1767V13.4257C11.3565 13.4786 11.568 13.5065 11.7849 13.5065C13.4467 13.5065 14.7939 11.8707 14.7939 9.85275C14.7939 7.83486 13.4467 6.19902 11.7849 6.19902C10.5626 6.19902 9.51051 7.08404 9.03953 8.35516L7.74324 7.05887C8.5732 5.51126 10.0723 4.47793 11.7838 4.47793C14.3952 4.47793 16.5122 6.88356 16.5122 9.85106Z" fill="#122315"></path>
</svg>