<svg width="29" height="29" viewBox="0 0 29 29" fill="none" xmlns="http://www.w3.org/2000/svg">
<path fill-rule="evenodd" clip-rule="evenodd" d="M4.28906 25.3281V2.28809H15.6961C15.7667 2.28809 15.8326 2.32335 15.8717 2.38206C17.5203 4.85492 19.6422 6.97686 22.1151 8.62544C22.1738 8.66458 22.2091 8.73047 22.2091 8.80103V25.3281H4.28906ZM8.76562 19.5663C11.7469 19.826 14.7444 19.826 17.7257 19.5663V21.4045C16.9783 21.3264 16.233 21.285 15.4857 21.2575C13.2457 21.1862 11.0016 21.1908 8.76562 21.4045V19.5663ZM17.7257 15.3281C14.7444 15.5878 11.7469 15.5878 8.76562 15.3281V17.1663C11.0016 16.9526 13.2457 16.948 15.4857 17.0193C16.233 17.0468 16.9783 17.0882 17.7257 17.1663V15.3281Z" fill="#122315"></path>
</svg>