<svg width="28" height="28" viewBox="0 0 28 28" fill="none" xmlns="http://www.w3.org/2000/svg">
<path fill-rule="evenodd" clip-rule="evenodd" d="M19.3223 23.1785L19.3216 23.1792L16.6272 19.9524C14.1038 21.9761 10.2453 21.934 7.8187 19.8494C5.41866 17.9053 4.66758 14.3622 6.10416 11.653C8.19503 7.55872 13.9351 6.93724 16.6787 10.6677C17.4641 11.7251 17.8592 13.0187 17.8246 14.3262H14.957L21.0922 21.3842L27.5334 14.3262H24.8221C24.7367 10.05 22.3347 5.91248 18.6431 3.75489C12.3518 -0.0302098 3.993 2.53379 1.02926 9.27326C-1.25523 14.2685 0.373423 20.5411 4.82216 23.7313C9.05983 26.9509 15.3756 26.7231 19.3216 23.1792L19.3223 23.1801V23.1785ZM12.9164 3.86855C17.6618 3.58591 22.0575 7.12586 22.9085 11.7854C23.0303 12.4334 23.0756 13.0939 23.0568 13.7529L22.6883 13.7545C22.6446 13.1252 22.5572 12.5037 22.4119 11.8916C21.6812 8.84664 19.5075 6.17646 16.5938 4.98971C15.4382 4.51033 14.1875 4.25736 12.9242 4.24487L12.9164 3.87011V3.86855Z" fill="#122315"></path>
</svg>